FFmpeg version SVN-r25716, Copyright (c) 2000-2010 the FFmpeg developers  built on Nov 10 2010 12:23:18 with gcc 4.1.2 20080704 (Red Hat 4.1.2-48)  configuration: --enable-libmp3lame --enable-shared --disable-mmx --arch=x86_64  libavutil     50.33. 0 / 50.33. 0  libavcore      0.12. 1 /  0.12. 1  libavcodec    52.94. 4 / 52.94. 4  libavformat   52.84. 0 / 52.84. 0  libavdevice   52. 2. 2 / 52. 2. 2  libavfilter    1.59. 0 /  1.59. 0  libswscale     0.12. 0 /  0.12. 0Seems stream 0 codec frame rate differs from container frame rate: 1200.00 (1200/1) -> 6.98 (300/43)Input #0, mov,mp4,m4a,3gp,3g2,mj2, from '/RAID10/data/converted_video_files/11985.mov':  Metadata:    major_brand     : qt      minor_version   : 537199360    compatible_brands: qt    Duration: 00:01:00.20, start: 0.000000, bitrate: 975 kb/s    Stream #0.0(eng): Video: h264, yuv420p, 1252x394, 973 kb/s, 6.98 fps, 6.98 tbr, 600 tbn, 1200 tbc[buffer @ 0x1b2aec40] w:1252 h:394 pixfmt:yuv420pOutput #0, flv, to '/RAID10/data/converted_video_files/11985.flv':  Metadata:    encoder         : Lavf52.84.0    Stream #0.0(eng): Video: flv, yuv420p, 1252x394, q=2-31, 600 kb/s, 1k tbn, 24 tbcStream mapping:  Stream #0.0 -> #0.0Press [q] to stop encodingframe=   22 fps=  0 q=4.8 size=     242kB time=3.04 bitrate= 653.0kbits/s    frame=   45 fps= 43 q=6.4 size=     401kB time=6.33 bitrate= 519.2kbits/s    frame=   68 fps= 43 q=5.5 size=     563kB time=9.62 bitrate= 479.1kbits/s    frame=   90 fps= 43 q=5.8 size=     736kB time=12.79 bitrate= 471.1kbits/s    frame=  111 fps= 43 q=4.7 size=     925kB time=15.79 bitrate= 480.0kbits/s    frame=  132 fps= 42 q=4.4 size=    1072kB time=18.83 bitrate= 466.3kbits/s    frame=  153 fps= 41 q=4.7 size=    1275kB time=21.83 bitrate= 478.2kbits/s    frame=  173 fps= 42 q=4.5 size=    1461kB time=24.71 bitrate= 484.3kbits/s    frame=  195 fps= 42 q=5.3 size=    1685kB time=27.83 bitrate= 496.0kbits/s    frame=  215 fps= 41 q=5.5 size=    1857kB time=30.71 bitrate= 495.3kbits/s    frame=  235 fps= 41 q=5.1 size=    2059kB time=33.58 bitrate= 502.2kbits/s    frame=  247 fps= 40 q=5.0 size=    2173kB time=35.29 bitrate= 504.5kbits/s    frame=  266 fps= 40 q=4.7 size=    2368kB time=38.04 bitrate= 510.0kbits/s    frame=  288 fps= 40 q=5.1 size=    2545kB time=41.17 bitrate= 506.5kbits/s    frame=  310 fps= 40 q=4.5 size=    2776kB time=44.33 bitrate= 513.0kbits/s    frame=  333 fps= 40 q=5.1 size=    3011kB time=47.62 bitrate= 517.9kbits/s    frame=  356 fps= 41 q=4.1 size=    3242kB time=50.92 bitrate= 521.6kbits/s    frame=  379 fps= 41 q=4.6 size=    3511kB time=54.21 bitrate= 530.5kbits/s    frame=  402 fps= 41 q=4.4 size=    3740kB time=57.50 bitrate= 532.9kbits/s    frame=  420 fps= 41 q=4.5 Lsize=    3899kB time=60.08 bitrate= 531.6kbits/s    video:3892kB audio:0kB global headers:0kB muxing overhead 0.173864%